<svg width="120" height="114" viewBox="0 0 120 114" fill="none" xmlns="http://www.w3.org/2000/svg">
<path fill-rule="evenodd" clip-rule="evenodd" d="M37.1094 52.5168C37.6434 51.9446 38.1769 51.3724 38.7109 50.7999C42.305 46.9474 45.6888 43.9952 51.3281 39.7924C51.4325 39.7399 51.5363 39.6874 51.6406 39.6352C51.88 39.4721 52.1191 39.3093 52.3588 39.1461C52.7534 38.8771 53.4566 38.4177 54.7656 37.593C54.8175 37.593 54.87 37.593 54.9219 37.593C55.1825 37.4358 55.4425 37.2786 55.7031 37.1218C56.265 36.888 56.8266 36.6543 57.3891 36.4208C61.6469 34.6496 65.4016 34.2299 68.4375 35.1865C70.9172 35.9674 73.2734 37.9336 74.3328 40.1065C75.1891 41.8618 75.4094 42.8721 75.4938 45.4477C75.55 47.1783 75.5094 47.9802 75.0781 49.8461C74.9734 49.9511 74.8703 50.0555 74.7656 50.1605C74.6547 50.4089 74.5422 50.658 74.4312 50.9068C73.4562 53.0808 73.1391 53.6555 72.5344 54.3493C72.1687 54.7671 71.4703 55.6433 70.9813 56.2968C68.6703 59.3783 64.4781 62.7461 60.4688 64.7408C58.5078 65.7161 56.5469 66.4568 56.3781 66.2858C56.1153 66.0224 57.5922 62.3821 58.5844 60.8446C58.9469 60.2821 59.9516 59.0677 60.8141 58.1464C63.1172 55.6889 65.5422 52.4346 66.0281 51.1493C66.2437 50.5799 66.0375 50.7365 64.8516 52.0455C60.7297 56.5924 54.5469 60.209 48.8281 61.4186C47.1416 61.7755 42.2459 61.8296 41.6669 61.4977C41.3113 61.2943 41.3094 61.2811 41.5888 60.9674C41.7459 60.7905 42.9562 59.7255 44.2775 58.6011C45.5994 57.4761 47.4369 55.8061 48.3619 54.8899C50.3934 52.8771 52.7559 50.1655 52.6409 49.9783C52.595 49.9036 52.1578 50.1874 51.6694 50.6089C46.3988 55.1558 39.2353 58.4343 33.2031 59.0599C32.8644 59.0949 32.5262 59.1299 32.1875 59.1652C32.2741 58.9343 32.3609 58.703 32.4475 58.4721C32.6775 57.8596 33.4 56.8355 35.625 53.9686C35.9688 53.5255 36.3388 53.159 36.4469 53.1543C36.555 53.1493 36.7484 53.004 37.1094 52.5168Z" fill="#253340"/>
<path fill-rule="evenodd" clip-rule="evenodd" d="M92.2656 67.7549C92.2687 67.5924 92.2719 67.4299 92.275 67.2674C92.2891 66.5989 92.1922 66.5536 91.6406 66.9693C92.0047 66.4327 92.3687 65.8958 92.7328 65.3593C96.8375 59.313 99.2938 50.3486 99.2969 41.4024C99.2969 40.4305 99.3594 39.6352 99.4375 39.6352C99.6594 39.6352 100.53 41.0924 101.047 42.3299C102.077 44.7955 102.419 48.8064 101.867 51.9858C100.934 57.3818 97.125 63.6374 92.2656 67.7549Z" fill="#111D26"/>
<path fill-rule="evenodd" clip-rule="evenodd" d="M51.3281 39.7924C45.6887 43.9952 42.305 46.9474 38.7109 50.7999C38.1769 51.3724 37.6434 51.9446 37.1094 52.5168C37.0806 52.469 37.0516 52.4215 37.0228 52.3736C36.9025 52.1746 39.5081 48.9596 42.8906 45.1333C43.0394 45.1777 43.1881 45.2218 43.3369 45.2661C43.7403 45.3861 43.8937 45.3021 44.9384 44.389C45.9744 43.4833 48.9525 41.1871 50.3906 40.1846C50.6912 39.9752 51.2187 39.5958 51.5625 39.3415C51.9062 39.0877 52.5891 38.6677 53.08 38.4083C53.5706 38.1493 54.1684 37.8005 54.4081 37.6333C54.6478 37.4661 55.0369 37.2827 55.7031 37.1218C55.4425 37.2786 55.1825 37.4358 54.9219 37.593C54.87 37.593 54.8175 37.593 54.7656 37.593C53.4566 38.4177 52.7534 38.8771 52.3587 39.1461C52.1191 39.3093 51.88 39.4721 51.6406 39.6352C51.5362 39.6874 51.4325 39.7399 51.3281 39.7924Z" fill="url(#paint0_linear_725_1708)"/>
<path fill-rule="evenodd" clip-rule="evenodd" d="M37.1094 52.5168C36.7484 53.004 36.555 53.1493 36.4469 53.1543C36.3388 53.159 35.9688 53.5255 35.625 53.9687C33.4 56.8355 32.6775 57.8596 32.4475 58.4721C32.3609 58.703 32.2741 58.9343 32.1875 59.1652C32.5262 59.1299 32.8644 59.0949 33.2031 59.0599C39.2353 58.4343 46.3988 55.1558 51.6694 50.609C52.1578 50.1874 52.595 49.9037 52.6409 49.9783C52.7559 50.1655 50.3934 52.8771 48.3619 54.8899C47.4369 55.8062 45.5994 57.4762 44.2775 58.6012C42.9562 59.7255 41.7459 60.7905 41.5888 60.9674C41.3094 61.2812 41.3113 61.2943 41.6669 61.4977C42.2459 61.8296 47.1416 61.7755 48.8281 61.4187C54.5469 60.209 60.7297 56.5924 64.8516 52.0455C66.0375 50.7365 66.2437 50.5799 66.0281 51.1493C65.5422 52.4346 63.1172 55.689 60.8141 58.1465C59.9516 59.0677 58.9469 60.2821 58.5844 60.8446C57.5922 62.3821 56.1153 66.0224 56.3781 66.2859C56.5469 66.4568 58.5078 65.7162 60.4688 64.7409C64.4781 62.7462 68.6703 59.3784 70.9813 56.2968C71.4703 55.6434 72.1687 54.7671 72.5344 54.3493C73.1391 53.6555 73.4562 53.0808 74.4312 50.9068C74.5422 50.658 74.6547 50.409 74.7656 50.1605C74.8703 50.1605 74.9734 50.1605 75.0781 50.1605C74.4469 52.2908 73.8859 53.6687 73.425 54.5965C70.8078 59.8709 66.4641 64.478 61.3125 67.4427C58.5391 69.0387 54.8353 70.3205 53.7725 70.0524C53.3841 69.9546 53.3594 69.8924 53.3594 69.0224C53.3594 67.7708 53.7206 65.9574 54.1944 64.8324C54.4087 64.323 54.5366 63.888 54.4778 63.8662C54.3291 63.8105 53.3925 65.2746 52.7944 66.498C52.2209 67.6708 51.99 68.4565 51.7334 70.1046C51.6728 70.4949 51.6122 70.8855 51.5512 71.2758C50.9281 71.6033 50.305 71.9312 49.6819 72.259C47.5606 73.3743 42.3841 75.7705 40.8594 76.3424C40.3006 76.5521 39.6328 76.8209 39.375 76.9393C37.6016 77.7546 32.295 79.7443 28.6719 80.9524C21.3056 83.4096 8.4775 86.8505 5.98094 87.0396C4.28188 87.168 3.76625 86.5827 4.39813 85.2443C4.75438 84.4893 6.76313 82.2434 10.5566 78.3587C12.3281 76.5443 14.3622 74.4234 15.0769 73.6459C17.8022 70.6799 29.6588 56.979 32.4169 53.6084C38.6516 45.9896 41.0144 43.3459 44.2766 40.3402C47.1237 37.7171 48.7141 36.4384 52.5772 33.6655C58.3688 29.5087 59.1531 28.2821 62.9766 17.4065C64.1641 14.0299 64.8844 12.3287 65.8125 10.7143C69.4172 4.4396 75.3031 0.616476 82.2031 0.0686636C86.9734 -0.310086 91.7516 0.88835 95.5234 3.40897C96.9109 4.3371 99.1734 6.47835 100.091 7.73272C100.337 8.06866 100.583 8.4046 100.828 8.74085C101.655 8.96991 102.48 9.19898 103.305 9.42773C109.856 11.2455 114.316 13.9683 117.273 17.9565C118.648 19.8112 119.766 22.8224 119.766 24.6755C119.766 24.9609 119.766 25.2462 119.766 25.5318C119.573 25.4955 119.381 25.459 119.189 25.4227C118.87 25.363 118.275 25.143 117.866 24.934C116.93 24.4571 116.37 24.4584 113.998 24.9443C111.534 25.4487 108.106 26.0049 104.319 26.5149C101.019 26.9593 100.516 27.1293 99.5906 28.1149C98.8078 28.9474 98.2844 29.924 97.875 31.3093C97.55 32.4149 97.5219 32.899 97.4187 39.164C97.3078 46.0505 97.1891 47.5565 96.4703 51.1815C95.6281 55.4271 94.0156 59.6927 91.8391 63.4418C89.2813 67.8446 84.2922 73.2215 80.1328 76.0593C79.6047 76.4199 78.4109 77.1562 77.4813 77.6955C75.8156 78.6608 75.7766 78.6962 74.9641 80.0096C74.5109 80.743 73.7078 82.1212 73.1797 83.0715C71.9672 85.2555 70.6906 87.249 69.8656 88.243C69.6516 88.5005 69.4375 88.7583 69.2234 89.0158C70.4469 90.2162 71.6703 91.4165 72.8922 92.6168C74.9109 94.5974 76.7922 96.3971 77.0719 96.6162C77.2422 96.749 77.4125 96.8818 77.5828 97.0146C77.8844 96.9293 78.1859 96.844 78.4891 96.7587C79.6328 96.4362 81.3172 96.4287 82.0656 96.743C82.3812 96.8752 82.9062 97.2287 83.2328 97.5287C83.4312 97.7102 83.6297 97.8921 83.8281 98.074C84.3031 98.6265 84.6234 99.2783 84.8484 99.8787C85.1953 100.806 85.2437 101.131 85.1672 102.036C85.1375 102.391 85.1078 102.746 85.0781 103.101C84.4047 104.568 83.75 105.143 82.7531 105.143C81.925 105.143 81.4844 104.825 81.4844 104.227C81.4844 104.114 81.4844 104 81.4844 103.886C82.5047 102.327 82.5938 101.807 82.0344 100.658C81.5266 99.6158 80.6016 98.8593 79.8344 98.8593C79.6656 98.8593 79.4953 98.8593 79.325 98.8593C79.5125 99.2252 79.6984 99.5915 79.8859 99.9574C80.3766 100.919 80.4531 101.222 80.4969 102.392C80.5141 102.838 80.5297 103.284 80.5469 103.729C79.7812 105.691 79.0266 106.4 77.7031 106.4C76.7391 106.4 76.1 106.071 75.7016 105.374C75.5984 105.192 75.4938 105.011 75.3906 104.829C75.3906 104.585 75.6906 104.515 76.0594 104.515C76.9156 104.515 77.3719 104.186 77.5766 103.42C78.0641 101.599 76.5016 99.4912 74.4891 99.2562C73.9969 99.1987 72.8375 99.2274 71.9141 99.3196C71.3547 99.3755 70.7937 99.4318 70.2344 99.4877C70.3656 98.8362 70.2594 98.6055 69.9469 98.8655C69.8859 98.9159 69.8266 98.9662 69.7656 99.0165C71.225 97.5249 71.6391 97.2455 72.1688 97.103C72.5656 96.9965 72.8859 96.8705 72.8797 96.824C72.875 96.7768 71.2578 95.254 69.2875 93.4396C66.4906 90.8652 65.5813 90.1146 65.1422 90.0224C64.4172 89.8696 63.325 89.0768 62.8109 88.3315C62.2625 87.5371 61.8641 86.4252 61.6672 85.153C61.5281 84.2387 61.4609 84.0924 61.1828 84.0924C61.075 84.0924 60.9672 84.0924 60.8594 84.0924C60.8594 83.849 60.7359 83.7821 60.5859 83.7862C60.3797 83.7921 60.3609 83.8308 60.5078 83.9433C60.5734 83.993 60.6375 84.0427 60.7031 84.0924C60.0375 84.2655 60.0203 84.2449 60.2 83.9874C60.9969 82.8424 63.2469 77.3374 62.9203 77.3374C62.8406 77.3374 61.9063 78.6837 60.8422 80.3287C56.4234 87.1574 55.6428 88.2974 54.7991 89.1596C54.5041 89.4612 54.2091 89.7624 53.9144 90.0637C54.0063 90.2337 54.0978 90.4037 54.1894 90.5737C54.5297 91.2034 56.8719 94.568 58.6141 96.9308C59.4797 98.1049 60.0438 98.7268 60.3016 98.7918C60.5141 98.8455 61.1344 98.7768 61.6813 98.6387C62.2281 98.5008 62.8969 98.388 63.1688 98.388C63.8141 98.388 65.1812 98.9146 65.8203 99.409C65.9891 99.5399 66.1594 99.6709 66.3281 99.8018C67.6484 101.96 67.8172 102.473 67.7703 104.161C67.7578 104.593 67.7469 105.025 67.7344 105.457C66.8688 106.841 66.2422 107.341 65.3766 107.342C64.75 107.342 64.3953 107.036 64.2391 106.361C64.2063 106.216 64.1734 106.072 64.1406 105.928C64.8844 105.311 65.1484 104.595 65.0016 103.601C64.8578 102.643 64.6047 102.175 63.8641 101.502C63.3906 101.073 63.0656 100.924 62.4141 100.837C61.6047 100.729 61.5844 100.735 61.8359 101.015C62.4719 101.722 62.9375 103.146 62.9938 104.554C63.0109 105.012 63.0297 105.47 63.0469 105.928C62.1859 107.778 61.6203 108.345 60.4453 108.531C59.5281 108.677 58.7797 108.38 58.2141 107.648C58.0531 107.441 57.8937 107.235 57.7344 107.028C58.2797 106.666 58.6344 106.561 58.875 106.559C59.1281 106.558 59.4719 106.395 59.6953 106.171C60.5141 105.347 60.0078 103.142 58.7359 102C58.5328 101.817 58.3281 101.634 58.125 101.451C57.5516 101.457 56.9797 101.463 56.4062 101.469C55.4609 101.479 54.1075 101.603 53.3984 101.744C52.9688 101.83 52.5391 101.916 52.1094 102.001C52.8063 99.9996 53.7259 99.0715 55.3491 98.7324C55.6725 98.6649 55.9375 98.5562 55.9375 98.4905C55.9375 98.4252 54.7422 96.7555 53.2812 94.7802C50.6491 91.2209 50.6169 91.1852 49.7147 90.8218C48.0038 90.1324 46.7175 88.3552 46.4031 86.2465C46.3662 85.9996 46.3294 85.753 46.2928 85.5065C45.7128 85.5052 45.1328 85.5043 44.5525 85.5033C43.5953 85.5015 42.3556 85.4302 41.7969 85.3449C41.4581 85.293 41.12 85.2415 40.7812 85.1896C40.4087 85.5812 40.0359 85.973 39.6634 86.3649C39.0491 87.0112 37.8222 88.3371 36.9378 89.3118C29.3312 97.6905 26.3691 100.236 22.5387 101.686C20.0872 102.614 17.8109 102.996 15.2356 102.914C14.0747 102.877 13.0022 102.777 12.8522 102.693C12.6225 102.563 12.8681 102.319 14.4147 101.137C16.5984 99.4687 21.5231 94.5815 24.2284 91.3974C25.2563 90.1877 26.0788 89.1805 26.0563 89.1587C26.0428 89.1458 26.0291 89.1324 26.0156 89.1196C19.6788 94.8587 17.4766 96.7143 14.5312 98.7962C10.5719 101.595 7.62781 102.826 4.84375 102.846C3.22875 102.858 2.08312 102.613 0.859375 101.996C0.573125 101.851 0.28625 101.706 0 101.561C0.155313 101.438 0.310317 101.315 0.465317 101.192C1.89094 100.061 5.83812 96.6158 13.9572 89.4174C15.3606 88.1737 16.7559 86.949 17.0584 86.6965C17.5038 86.3246 18.4766 85.9874 22.1634 84.9271C33.1669 81.7624 40.5719 78.9009 49.8438 74.2302C53.0288 72.6255 54.0303 72.1949 55.2684 71.8984C60.5516 70.6312 65.4047 67.6749 69.8609 63.0087C73.5906 59.1049 76.1875 54.3327 77.1984 49.5321C77.5859 47.6952 77.5875 44.249 77.2047 42.5624C76.3422 38.7699 74.1328 35.7737 71.0641 34.2337C67.4031 32.3971 62.0156 32.4824 57.2625 34.4524C53.2122 36.1309 48.8003 39.2309 44.8619 43.1646C44.2047 43.8209 43.5478 44.4771 42.8906 45.1334C39.5081 48.9596 36.9025 52.1746 37.0228 52.3737C37.0516 52.4215 37.0806 52.469 37.1094 52.5168ZM97.2844 7.79866C96.1781 6.40929 94.1859 4.7896 92.6016 3.98898C90.5266 2.94085 87.7406 2.21585 85 2.01085C81.9641 1.78397 77.9437 2.73554 75.2641 4.31554C73.8953 5.1221 71.0766 8.04773 70.2547 9.51648C68.5109 12.6287 67.7562 15.9499 67.9437 19.6843C68.0937 22.6387 68.7984 25.0618 70.2594 27.6383C71.3922 29.6383 72.3953 30.9137 74.975 33.6312C78.1437 36.9718 79.8406 39.644 80.9328 43.0127C81.4562 44.6293 81.9844 47.0471 82.1969 48.7996C82.2875 49.5521 82.2922 49.5568 82.6063 49.2708C83.3234 48.6199 84.5141 45.6024 84.6906 43.9924C84.75 43.4371 84.85 43.1252 84.9484 43.1862C85.2547 43.3765 86.0453 45.384 86.5703 47.3005C87.3125 50.013 87.5781 52.0468 87.5781 55.0112C87.5781 57.1859 87.6125 57.5437 87.8188 57.5437C88.1625 57.5437 90.8281 54.8074 91.5391 53.7265C94.0078 49.9637 95.0156 46.5827 95.1844 41.4933C95.2172 40.5158 95.2484 39.538 95.2813 38.5602C95.0328 38.3337 94.7844 38.1068 94.5359 37.8802C92.6859 36.1921 90.4 33.084 89.1234 30.5193C87.4906 27.2393 86.7234 24.0037 86.8266 20.8252C86.9062 18.3859 86.9844 18.2634 88.9797 17.4624C90.8969 16.693 91.5922 16.019 92.3469 14.1962C93.5781 11.2249 95.2906 9.46304 97.3047 9.09491C97.6438 9.03304 97.8906 8.89741 97.8906 8.77335C97.8906 8.65554 97.6172 8.21679 97.2844 7.79866ZM90.7031 19.3702C90.9906 19.5343 94.2422 19.5959 98.1156 19.6127C105.961 19.6468 107.925 19.8174 111.819 20.8021C113.75 21.2905 116.575 22.419 117.13 22.923C117.517 23.2759 117.616 23.1471 117.422 22.5374C117.37 22.3718 117.317 22.2065 117.266 22.0409C115.987 19.2052 115.205 18.0965 113.292 16.4137C110.537 13.988 107.258 12.4549 101.952 11.1124C99.2016 10.4162 97.95 10.3508 96.9922 10.853C96.7703 10.9693 96.55 11.0852 96.3281 11.2015C95.0937 12.2996 94.6422 12.8912 94.4437 13.344C93.4547 15.6052 93.0953 16.1868 92.0359 17.2493C91.4313 17.8543 90.7094 18.473 90.4297 18.624C90.2609 18.7155 90.0906 18.8074 89.9219 18.899C89.7656 18.9512 89.6094 19.0037 89.4531 19.0562C89.8703 19.1608 90.2859 19.2655 90.7031 19.3702ZM13.7109 80.653C12.4863 81.1146 11.4844 81.5427 11.4844 81.6043C11.4844 81.7574 13.2294 81.2562 15.3906 80.4821C16.3791 80.128 17.6797 79.7062 18.2812 79.5446C19.3366 79.2612 21.2297 78.5962 21.875 78.2821C22.0469 78.1984 22.715 77.958 23.3594 77.7474C27.2906 76.464 35.6581 72.4877 41.0156 69.3568C42.6884 68.3793 49.0228 64.128 48.9363 64.0408C48.9053 64.0099 48.1828 64.0902 47.3306 64.2193C46.4784 64.3484 45.71 64.4546 45.6234 64.4549C45.5362 64.4555 44.5522 65.0621 43.4359 65.803C38.7106 68.9396 31.4463 72.929 25.7812 75.4983C24.9219 75.888 23.6563 76.4643 22.9688 76.7787C20.2413 78.0265 16.2591 79.693 13.7109 80.653ZM16.4444 75.4224C16.2934 75.553 16.2019 75.6921 16.2409 75.7312C16.3228 75.814 20.6491 73.5587 22.3687 72.5362C23.0137 72.153 23.5644 71.8393 23.5928 71.8393C23.6209 71.8393 24.8631 71.0762 26.3531 70.1437C29.7681 68.0062 31.7216 66.5965 35.5275 63.523C39.2391 60.5255 39.4066 60.3843 39.2481 60.3771C39.1787 60.374 38.2853 60.6137 37.2634 60.9093C36.6441 61.0887 36.0247 61.2677 35.4053 61.4471C34.8169 61.9396 34.2284 62.4324 33.6403 62.9249C31.29 64.8927 24.0328 70.3908 23.0147 70.9752C22.5056 71.2674 16.7209 75.1827 16.4444 75.4224ZM89.3359 20.5368C88.8078 20.3812 88.9125 20.6887 89.4922 20.9924C90.2016 21.3649 90.6437 21.6593 92.2187 22.8084C94.7875 24.6821 96.3375 25.1446 99.4437 24.9621C103.178 24.7427 111.278 23.6809 113.125 23.168C113.562 23.0468 113.572 23.0271 113.281 22.8759C112.836 22.6446 110.698 22.0977 109.141 21.8165C106.647 21.3665 104.377 21.2299 99.5078 21.2371C94.1219 21.2455 91.0141 21.0315 89.3359 20.5368Z" fill="#121D25"/>
<path fill-rule="evenodd" clip-rule="evenodd" d="M97.2844 7.79868C97.6172 8.21681 97.8906 8.65555 97.8906 8.77337C97.8906 8.89743 97.6437 9.03305 97.3047 9.09493C95.2906 9.46305 93.5781 11.2249 92.3469 14.1962C91.5922 16.019 90.8969 16.6931 88.9797 17.4624C86.9844 18.2634 86.9062 18.3859 86.8265 20.8252C86.7234 24.0037 87.4906 27.2393 89.1234 30.5193C90.4 33.084 92.6859 36.1921 94.5359 37.8802C94.7844 38.1068 95.0328 38.3337 95.2813 38.5602C95.2484 39.5381 95.2172 40.5159 95.1844 41.4934C95.0156 46.5827 94.0078 49.9637 91.5391 53.7265C90.8281 54.8074 88.1625 57.5437 87.8188 57.5437C87.6125 57.5437 87.5781 57.1859 87.5781 55.0112C87.5781 52.0468 87.3125 50.0131 86.5703 47.3006C86.0453 45.384 85.2547 43.3765 84.9484 43.1862C84.85 43.1252 84.75 43.4371 84.6906 43.9924C84.5141 45.6024 83.3234 48.6199 82.6063 49.2709C82.2922 49.5568 82.2875 49.5521 82.1969 48.7996C81.9844 47.0471 81.4562 44.6293 80.9328 43.0127C79.8406 39.644 78.1437 36.9718 74.975 33.6312C72.3953 30.9137 71.3922 29.6384 70.2594 27.6384C68.7984 25.0618 68.0937 22.6387 67.9437 19.6843C67.7562 15.9499 68.5109 12.6287 70.2547 9.51649C71.0766 8.04774 73.8953 5.12212 75.264 4.31555C77.9437 2.73555 81.9641 1.78399 85 2.01087C87.7406 2.21587 90.5266 2.94087 92.6016 3.98899C94.1859 4.78962 96.1781 6.40931 97.2844 7.79868ZM71.8375 20.6109C71.4047 21.264 71.3937 21.6215 71.7875 22.2602C72.9265 24.1146 76.95 25.1743 79.075 24.1799C80.1094 23.6952 80.6031 23.0759 80.4938 22.3974C80.2141 20.6727 77.4672 19.2543 74.6891 19.4009C73.1984 19.4796 72.3484 19.8399 71.8375 20.6109ZM85.7031 10.5731C85.4297 10.2699 85.1562 9.9668 84.8828 9.66368C84.2375 8.9493 83.8828 8.69712 83.225 8.48555C81.2453 7.85055 79.2891 8.37336 77.8484 9.92211C77.3 10.5109 77.0328 10.9756 76.4844 12.7724C76.5078 13.1409 76.5312 13.5096 76.5547 13.8784C76.7047 16.2774 78.0328 17.9621 80.325 18.6612C82.3781 19.2874 83.6094 18.8487 85.3906 16.8568C85.5125 16.6602 85.6344 16.464 85.7547 16.2677C86.5094 15.0487 86.7 13.5481 86.2797 12.1296C86.1672 11.7487 86.0797 11.2249 86.0875 10.9659C86.1047 10.4187 85.8187 10.1268 85.7031 10.5731Z" fill="#263441"/>
<path fill-rule="evenodd" clip-rule="evenodd" d="M90.7031 19.3702C90.4422 19.213 90.1828 19.0562 89.9219 18.899C90.0906 18.8074 90.2609 18.7155 90.4297 18.624C90.7094 18.473 91.4313 17.8543 92.0359 17.2493C93.0953 16.1868 93.4547 15.6052 94.4437 13.344C94.6422 12.8912 95.0937 12.2996 96.3281 11.2015C96.2766 11.3027 96.2234 11.404 96.1719 11.5052C96.0219 11.7977 96.0531 11.803 97.0312 11.6499C97.5969 11.5612 98.0469 11.4115 98.0469 11.3112C98.0469 11.2124 98.1563 11.2887 98.2906 11.4805C98.5141 11.8018 98.5109 11.8296 98.2594 11.8296C97.5594 11.8296 98.4609 12.1284 100.391 12.5368C102.512 12.9852 105.905 14.0905 107.767 14.9399C110.881 16.359 115.369 19.6215 116.244 21.1015C116.497 21.5315 116.831 21.9187 117.266 22.0409C117.317 22.2065 117.37 22.3718 117.422 22.5374C117.616 23.1471 117.517 23.2759 117.13 22.923C116.575 22.419 113.75 21.2905 111.819 20.8021C107.925 19.8174 105.961 19.6468 98.1156 19.6127C94.2422 19.5959 90.9906 19.5343 90.7031 19.3702ZM95.1562 12.7724C95.2094 12.6858 95.2172 12.6152 95.175 12.6152C95.1312 12.6152 95.0531 12.6858 95 12.7724C94.9469 12.8587 94.9391 12.9293 94.9813 12.9293C95.025 12.9293 95.1031 12.8587 95.1562 12.7724ZM95.4688 12.458C95.5219 12.3718 95.5297 12.3012 95.4875 12.3012C95.4437 12.3012 95.3656 12.3718 95.3125 12.458C95.2594 12.5446 95.2516 12.6152 95.2938 12.6152C95.3375 12.6152 95.4156 12.5446 95.4688 12.458ZM95.7812 12.144C95.8344 12.0574 95.8422 11.9868 95.8 11.9868C95.7562 11.9868 95.6781 12.0574 95.625 12.144C95.5719 12.2302 95.5641 12.3012 95.6063 12.3012C95.65 12.3012 95.7281 12.2302 95.7812 12.144ZM96.0156 11.9083C96.0156 11.8652 95.9813 11.8296 95.9375 11.8296C95.8937 11.8296 95.8594 11.8652 95.8594 11.9083C95.8594 11.9515 95.8937 11.9868 95.9375 11.9868C95.9813 11.9868 96.0156 11.9515 96.0156 11.9083ZM98.6719 13.2437C98.6203 13.2149 98.5703 13.1865 98.5188 13.1577C98.3094 13.0399 97.7875 13.3302 96.9531 14.029C97.0656 14.1599 97.1781 14.2908 97.2906 14.4218C97.6094 14.7933 97.7141 14.8146 100.859 14.8146C101.028 14.8115 101.198 14.8087 101.367 14.8059C101.536 14.8027 101.706 14.7999 101.875 14.7971C101.589 14.5934 101.302 14.3896 101.016 14.1862C101.016 14.1515 101.016 14.1165 101.016 14.0818C101.016 14.0246 100.487 13.8124 98.6719 13.2437Z" fill="url(#paint1_radial_725_1708)"/>
<path fill-rule="evenodd" clip-rule="evenodd" d="M117.266 22.0408C116.831 21.9186 116.497 21.5315 116.244 21.1015C115.369 19.6215 110.881 16.359 107.767 14.9399C105.905 14.0905 102.512 12.9852 100.391 12.5368C98.4609 12.1283 97.5594 11.8296 98.2594 11.8296C98.5109 11.8296 98.5141 11.8018 98.2906 11.4805C98.1562 11.2886 98.0469 11.2124 98.0469 11.3111C98.0469 11.4115 97.5969 11.5611 97.0312 11.6499C96.0531 11.803 96.0219 11.7977 96.1719 11.5052C96.2234 11.404 96.2765 11.3027 96.3281 11.2015C96.55 11.0852 96.7703 10.9693 96.9922 10.853C97.95 10.3508 99.2015 10.4161 101.952 11.1124C107.258 12.4549 110.537 13.988 113.292 16.4136C115.205 18.0965 115.987 19.2052 117.266 22.0408ZM98.75 11.8533C98.7234 11.8455 98.6984 11.8377 98.6719 11.8296C98.6453 11.8377 98.6203 11.8455 98.5937 11.8533C98.55 11.8665 98.5859 11.8768 98.6719 11.8768C98.7578 11.8768 98.7937 11.8665 98.75 11.8533Z" fill="#F7F3E3"/>
<path fill-rule="evenodd" clip-rule="evenodd" d="M89.9219 18.899C90.1828 19.0562 90.4422 19.213 90.7031 19.3702C90.2859 19.2655 89.8703 19.1609 89.4531 19.0562C89.6094 19.0037 89.7656 18.9512 89.9219 18.899Z" fill="#FEF7DE"/>
<path fill-rule="evenodd" clip-rule="evenodd" d="M16.4444 75.4224C16.7209 75.1827 22.5056 71.2674 23.0147 70.9752C24.0328 70.3909 31.29 64.8927 33.6403 62.9249C34.2284 62.4324 34.8169 61.9396 35.4053 61.4471C36.0247 61.2677 36.6441 61.0887 37.2634 60.9093C38.2853 60.6137 39.1788 60.374 39.2481 60.3771C39.4066 60.3843 39.2391 60.5255 35.5275 63.523C31.7216 66.5965 29.7681 68.0062 26.3531 70.1437C24.8631 71.0762 23.6209 71.8393 23.5928 71.8393C23.5644 71.8393 23.0138 72.1531 22.3688 72.5362C20.6491 73.5587 16.3228 75.814 16.2409 75.7312C16.2019 75.6921 16.2934 75.553 16.4444 75.4224Z" fill="url(#paint2_radial_725_1708)"/>
<path fill-rule="evenodd" clip-rule="evenodd" d="M13.7109 80.6531C16.2591 79.6931 20.2413 78.0265 22.9688 76.7787C23.6563 76.4643 24.9219 75.8881 25.7812 75.4984C31.4463 72.929 38.7106 68.9396 43.4359 65.8031C44.5522 65.0621 45.5362 64.4556 45.6234 64.4549C45.71 64.4546 46.4784 64.3484 47.3306 64.2193C48.1828 64.0903 48.9053 64.0099 48.9363 64.0409C49.0228 64.1281 42.6884 68.3793 41.0156 69.3568C35.6581 72.4878 27.2906 76.464 23.3594 77.7474C22.715 77.9581 22.0469 78.1984 21.875 78.2821C21.2297 78.5962 19.3366 79.2612 18.2812 79.5446C17.6797 79.7062 16.3791 80.1281 15.3906 80.4821C13.2294 81.2562 11.4844 81.7574 11.4844 81.6043C11.4844 81.5427 12.4863 81.1146 13.7109 80.6531Z" fill="url(#paint3_linear_725_1708)"/>
<path fill-rule="evenodd" clip-rule="evenodd" d="M89.336 20.5368C91.0141 21.0315 94.1219 21.2455 99.5078 21.2371C104.377 21.2299 106.647 21.3665 109.141 21.8165C110.698 22.0977 112.836 22.6446 113.281 22.8758C113.572 23.0271 113.563 23.0468 113.125 23.168C111.278 23.6808 103.178 24.7427 99.4438 24.9621C96.3375 25.1446 94.7875 24.6821 92.2188 22.8083C90.6438 21.6593 90.2016 21.3649 89.4922 20.9924C88.9125 20.6886 88.8078 20.3811 89.336 20.5368Z" fill="url(#paint4_radial_725_1708)"/>
<path fill-rule="evenodd" clip-rule="evenodd" d="M71.8375 20.6109C72.3484 19.8399 73.1984 19.4796 74.6891 19.4009C77.4672 19.2543 80.2141 20.6727 80.4937 22.3974C80.6031 23.0759 80.1094 23.6952 79.075 24.1799C76.95 25.1743 72.9265 24.1146 71.7875 22.2602C71.3937 21.6215 71.4047 21.264 71.8375 20.6109Z" fill="#F1DBAE"/>
<path fill-rule="evenodd" clip-rule="evenodd" d="M76.4844 12.7724C77.0328 10.9755 77.3 10.5109 77.8484 9.9221C79.2891 8.37335 81.2453 7.85054 83.225 8.48554C83.8828 8.6971 84.2375 8.94929 84.8828 9.66367C85.1562 9.96679 85.4297 10.2699 85.7031 10.573C85.7094 10.5987 85.7172 10.6243 85.7234 10.6499C85.7344 10.6918 85.3203 10.4737 84.8016 10.1646C84.0672 9.72616 83.7016 9.60554 82.4219 9.63054C81.9531 9.78741 81.4844 9.94461 81.0156 10.1018C80.8594 10.3112 80.7031 10.5205 80.5469 10.7302C80.5516 10.7693 80.5547 10.8087 80.5594 10.848C80.5656 10.9127 80.425 11.0896 79.9219 11.5155C79.8828 11.5146 79.8438 11.5137 79.8047 11.5127C79.7406 11.5112 79.6344 11.6877 79.4531 12.3012C79.4016 12.5105 79.3484 12.7199 79.2969 12.9293C79.2484 13.138 79.1984 13.3465 79.15 13.5552C78.8563 14.7993 79.7859 16.483 81.175 17.2187C81.9422 17.6252 82.1469 17.6652 83.1453 17.6037C83.9109 17.5562 84.4344 17.4293 85.3906 16.8568C83.6094 18.8487 82.3781 19.2874 80.325 18.6612C78.0328 17.9621 76.7047 16.2774 76.5547 13.8784C76.5312 13.5096 76.5078 13.1409 76.4844 12.7724Z" fill="url(#paint5_linear_725_1708)"/>
<path fill-rule="evenodd" clip-rule="evenodd" d="M85.7031 10.5731C85.8187 10.1268 86.1047 10.4187 86.0875 10.9659C86.0797 11.2249 86.1672 11.7487 86.2797 12.1296C86.7 13.5481 86.5094 15.0487 85.7547 16.2677C85.6344 16.464 85.5125 16.6602 85.3906 16.8568C84.4344 17.4293 83.9109 17.5562 83.1453 17.6037C82.1469 17.6652 81.9422 17.6253 81.175 17.2187C79.7859 16.4831 78.8563 14.7993 79.15 13.5552C79.1984 13.3465 79.2484 13.1381 79.2969 12.9293C79.2969 13.0359 79.2969 13.1421 79.2969 13.2484C79.2969 13.5574 79.3187 13.5596 80.7031 13.0865C80.9094 13.1181 81.114 13.1493 81.3203 13.1809C81.8422 13.2606 81.9969 13.214 82.3359 12.8737C82.9797 12.2252 82.8609 11.5062 81.9531 10.5731C81.9469 10.5337 81.9422 10.4943 81.9359 10.4552C81.9266 10.3902 82.0312 10.1784 82.4219 9.63056C83.7016 9.60556 84.0672 9.72618 84.8016 10.1646C85.3203 10.4737 85.7344 10.6918 85.7234 10.6499C85.7172 10.6243 85.7094 10.5987 85.7031 10.5731Z" fill="#131D26"/>
<path fill-rule="evenodd" clip-rule="evenodd" d="M79.9219 11.5155C80.425 11.0896 80.5656 10.9127 80.5594 10.848C80.5547 10.8086 80.5516 10.7693 80.5469 10.7302C80.7031 10.6252 80.8594 10.5205 81.0156 10.4158C81.3281 10.4683 81.6406 10.5205 81.9531 10.573C82.8609 11.5061 82.9797 12.2252 82.3359 12.8736C81.9969 13.214 81.8422 13.2605 81.3203 13.1808C81.1141 13.1493 80.9094 13.118 80.7031 13.0865C80.675 13.0865 80.6469 13.0865 80.6187 13.0865C80.5719 13.0865 80.3969 12.7683 79.9219 11.6727C79.9219 11.6202 79.9219 11.5677 79.9219 11.5155Z" fill="url(#paint6_radial_725_1708)"/>
<path fill-rule="evenodd" clip-rule="evenodd" d="M98.75 11.8533C98.7938 11.8665 98.7578 11.8768 98.6719 11.8768C98.5859 11.8768 98.55 11.8665 98.5938 11.8533C98.6203 11.8455 98.6453 11.8377 98.6719 11.8296C98.6984 11.8377 98.7234 11.8455 98.75 11.8533Z" fill="url(#paint7_radial_725_1708)"/>
<path fill-rule="evenodd" clip-rule="evenodd" d="M95.1563 12.7724C95.1031 12.8587 95.025 12.9293 94.9813 12.9293C94.9391 12.9293 94.9469 12.8587 95 12.7724C95.0531 12.6859 95.1313 12.6152 95.175 12.6152C95.2172 12.6152 95.2094 12.6859 95.1563 12.7724Z" fill="#F7F3E3"/>
<path fill-rule="evenodd" clip-rule="evenodd" d="M95.7813 12.144C95.7281 12.2303 95.65 12.3012 95.6063 12.3012C95.5641 12.3012 95.5719 12.2303 95.625 12.144C95.6781 12.0574 95.7563 11.9868 95.8 11.9868C95.8422 11.9868 95.8344 12.0574 95.7813 12.144Z" fill="#F7F3E3"/>
<path fill-rule="evenodd" clip-rule="evenodd" d="M96.0156 11.9083C96.0156 11.9515 95.9813 11.9868 95.9375 11.9868C95.8937 11.9868 95.8594 11.9515 95.8594 11.9083C95.8594 11.8652 95.8937 11.8296 95.9375 11.8296C95.9813 11.8296 96.0156 11.8652 96.0156 11.9083Z" fill="#F7F3E3"/>
<path fill-rule="evenodd" clip-rule="evenodd" d="M96.9531 14.029C97.7875 13.3302 98.3094 13.0399 98.5188 13.1577C98.5703 13.1865 98.6203 13.2149 98.6719 13.2436C98.6703 13.2827 98.6703 13.3221 98.6687 13.3615C98.6625 13.5702 99.6906 14.1861 100.047 14.1861C100.248 14.1861 100.391 14.2836 100.391 14.4218C100.391 14.5515 100.461 14.6574 100.703 14.6574C100.755 14.7096 100.808 14.7621 100.859 14.8146C97.7141 14.8146 97.6094 14.7933 97.2906 14.4218C97.1781 14.2908 97.0656 14.1599 96.9531 14.029Z" fill="#172533"/>
<path fill-rule="evenodd" clip-rule="evenodd" d="M79.2969 12.9293C79.3484 12.7199 79.4016 12.5105 79.4531 12.3012C79.6094 12.0915 79.7656 11.8821 79.9219 11.6727C80.3969 12.7684 80.5719 13.0865 80.6187 13.0865C80.6469 13.0865 80.675 13.0865 80.7031 13.0865C79.3188 13.5596 79.2969 13.5574 79.2969 13.2484C79.2969 13.1421 79.2969 13.0359 79.2969 12.9293Z" fill="#1A1918"/>
<path fill-rule="evenodd" clip-rule="evenodd" d="M79.4531 12.3011C79.6344 11.6877 79.7406 11.5111 79.8047 11.5127C79.8438 11.5136 79.8828 11.5146 79.9219 11.5155C79.9219 11.5677 79.9219 11.6202 79.9219 11.6727C79.7656 11.8821 79.6094 12.0915 79.4531 12.3011Z" fill="#C4B190"/>
<path fill-rule="evenodd" clip-rule="evenodd" d="M80.5469 10.7302C80.7031 10.5206 80.8594 10.3112 81.0156 10.1018C81.0156 10.2065 81.0156 10.3112 81.0156 10.4159C80.8594 10.5206 80.7031 10.6252 80.5469 10.7302Z" fill="#AA9E8A"/>
<path fill-rule="evenodd" clip-rule="evenodd" d="M81.0156 10.1018C81.4844 9.94462 81.9531 9.78743 82.4219 9.63055C82.0312 10.1784 81.9266 10.3902 81.9359 10.4552C81.9422 10.4943 81.9469 10.5337 81.9531 10.5731C81.6406 10.5206 81.3281 10.4684 81.0156 10.4159C81.0156 10.3112 81.0156 10.2065 81.0156 10.1018Z" fill="#282320"/>
<path fill-rule="evenodd" clip-rule="evenodd" d="M98.6719 13.2437C100.488 13.8124 101.016 14.0246 101.016 14.0818C101.016 14.1165 101.016 14.1515 101.016 14.1861C100.93 14.1511 100.842 14.1162 100.756 14.0812C100.547 13.9965 100.517 14.0421 100.703 14.6574C100.461 14.6574 100.391 14.5515 100.391 14.4218C100.391 14.2836 100.248 14.1861 100.047 14.1861C99.6906 14.1861 98.6625 13.5702 98.6688 13.3615C98.6703 13.3221 98.6703 13.2827 98.6719 13.2437Z" fill="#0A1922"/>
<path fill-rule="evenodd" clip-rule="evenodd" d="M101.016 14.1862C101.302 14.3896 101.589 14.5934 101.875 14.7971C101.706 14.7999 101.536 14.8027 101.367 14.8059C101.198 14.8087 101.028 14.8115 100.859 14.8146C100.808 14.7621 100.755 14.7096 100.703 14.6574C100.517 14.0421 100.547 13.9965 100.756 14.0812C100.842 14.1162 100.93 14.1512 101.016 14.1862Z" fill="#020A13"/>
<path fill-rule="evenodd" clip-rule="evenodd" d="M57.7344 107.028C57.6875 107.002 57.6406 106.976 57.5953 106.951C57.4156 106.851 54.7272 107.533 53.2031 108.065C50.6263 108.964 46.5185 111.243 44.2744 113.018C44.0844 113.169 43.895 113.319 43.705 113.469C41.7681 113.469 39.8309 113.469 37.8944 113.469C33.3166 113.469 32.0966 113.427 32.1456 113.273C32.3056 112.769 38.1122 108.42 40.3525 107.127C41.73 106.331 45.0413 104.661 46.3281 104.112C46.8869 103.874 48.4159 103.302 52.1094 102.001C52.5391 101.916 52.9688 101.83 53.3984 101.744C54.1075 101.603 55.4609 101.479 56.4063 101.469C56.9797 101.463 57.5516 101.457 58.125 101.451C58.3281 101.634 58.5328 101.817 58.7359 102C60.0078 103.142 60.5141 105.347 59.6953 106.171C59.4719 106.395 59.1281 106.558 58.875 106.559C58.6344 106.561 58.2797 106.666 57.7344 107.028Z" fill="#9C7B58"/>
<path fill-rule="evenodd" clip-rule="evenodd" d="M66.3281 99.8018C68.9781 99.6474 69.4984 99.5521 69.6078 99.3965C69.6609 99.3221 69.7141 99.2477 69.7656 99.1733C69.7656 99.2127 69.7656 99.2521 69.7641 99.2912C69.7641 99.3562 69.8703 99.4268 70.2344 99.4877C70.7937 99.4318 71.3547 99.3755 71.9141 99.3196C72.8375 99.2274 73.9969 99.1987 74.4891 99.2562C76.5016 99.4912 78.0641 101.599 77.5766 103.42C77.3719 104.186 76.9156 104.515 76.0594 104.515C75.6906 104.515 75.3906 104.585 75.3906 104.829C74.9344 104.828 74.4797 104.827 74.0234 104.826C73.2719 104.824 71.5484 104.965 67.7344 105.457C67.7469 105.025 67.7578 104.593 67.7703 104.161C67.8172 102.473 67.6484 101.96 66.3281 99.8018Z" fill="#9B7A59"/>
<path fill-rule="evenodd" clip-rule="evenodd" d="M83.8281 98.074C84.3875 97.9721 84.9484 97.8702 85.5078 97.7683C92.575 96.4827 97.7703 93.6849 102.852 88.429C104.68 86.5371 104.794 86.449 105.398 86.449C106.114 86.449 106.797 86.9858 106.797 87.5477C106.797 88.4968 104.659 91.4237 102.339 93.6502C100.827 95.1021 99.5406 96.1452 97.4828 97.5871C96.8063 98.0615 96.7563 98.1352 97.0328 98.2437C97.2031 98.3108 97.6734 98.3708 98.0781 98.3771C101.308 98.4255 109.386 100.202 110.128 101.027C110.548 101.493 110.444 101.985 109.784 102.648C109.127 103.309 108.709 103.391 107.5 103.099C106.161 102.776 103.072 102.292 100.961 102.076C95.9563 101.564 91.3203 101.863 85.0781 103.101C85.1078 102.746 85.1375 102.391 85.1672 102.036C85.2437 101.131 85.1953 100.806 84.8484 99.8787C84.6234 99.2783 84.3031 98.6265 83.8281 98.074Z" fill="#9C7B58"/>
<path fill-rule="evenodd" clip-rule="evenodd" d="M69.7656 99.1733C69.7656 99.1212 69.7656 99.0687 69.7656 99.0165C69.8266 98.9662 69.886 98.9158 69.9469 98.8655C70.2594 98.6055 70.3656 98.8362 70.2344 99.4877C69.8703 99.4268 69.7641 99.3562 69.7641 99.2912C69.7656 99.2521 69.7656 99.2127 69.7656 99.1733Z" fill="#060E12"/>
<path fill-rule="evenodd" clip-rule="evenodd" d="M64.1406 105.928C63.7766 105.928 63.4109 105.928 63.0469 105.928C63.0297 105.47 63.0109 105.012 62.9938 104.554C62.9375 103.146 62.4719 101.722 61.8359 101.015C61.5844 100.735 61.6047 100.729 62.4141 100.837C63.0656 100.924 63.3906 101.073 63.8641 101.502C64.6047 102.175 64.8578 102.643 65.0016 103.601C65.1484 104.595 64.8844 105.311 64.1406 105.928Z" fill="#977C5E"/>
<path fill-rule="evenodd" clip-rule="evenodd" d="M81.4844 103.886C81.1719 103.834 80.8594 103.782 80.5469 103.729C80.5297 103.284 80.5141 102.838 80.4969 102.392C80.4531 101.222 80.3766 100.919 79.8859 99.9574C79.6984 99.5915 79.5125 99.2253 79.325 98.8593C79.4953 98.8593 79.6656 98.8593 79.8344 98.8593C80.6016 98.8593 81.5266 99.6159 82.0344 100.658C82.5938 101.807 82.5047 102.327 81.4844 103.886Z" fill="#997E60"/>
<defs>
<linearGradient id="paint0_linear_725_1708" x1="6.00593" y1="81.4761" x2="5.68968" y2="81.1421" gradientUnits="userSpaceOnUse">
<stop stop-color="#7F9FA8"/>
<stop offset="1" stop-color="#7FA2AA"/>
</linearGradient>
<radialGradient id="paint1_radial_725_1708" cx="0" cy="0" r="1" gradientUnits="userSpaceOnUse" gradientTransform="translate(155.1 -16.0595) rotate(135.667) scale(68.8494 102.956)">
<stop stop-color="#F2DEAE"/>
<stop offset="0.0294611" stop-color="#F2DEAE"/>
<stop offset="0.113856" stop-color="#F4DCAF"/>
<stop offset="0.156053" stop-color="#F1DBB6"/>
<stop offset="0.282645" stop-color="#F2D9B3"/>
<stop offset="0.578027" stop-color="#F3D8AC"/>
<stop offset="0.957803" stop-color="#F2D6AF"/>
<stop offset="1" stop-color="#EFD7B3"/>
</radialGradient>
<radialGradient id="paint2_radial_725_1708" cx="0" cy="0" r="1" gradientUnits="userSpaceOnUse" gradientTransform="translate(19.6582 65.6612) rotate(90.6192) scale(9.47751 56.865)">
<stop stop-color="#74A0A8"/>
<stop offset="0.268244" stop-color="#74A0A8"/>
<stop offset="0.451183" stop-color="#76A0A8"/>
<stop offset="0.756081" stop-color="#7AA1AA"/>
<stop offset="0.878041" stop-color="#80A4AE"/>
<stop offset="1" stop-color="#7A9DA4"/>
</radialGradient>
<linearGradient id="paint3_linear_725_1708" x1="-16.2122" y1="104.981" x2="-19.0075" y2="100.454" gradientUnits="userSpaceOnUse">
<stop stop-color="#7DA3AC"/>
<stop offset="0.307692" stop-color="#7DA3AC"/>
<stop offset="0.538462" stop-color="#7AA1AA"/>
<stop offset="0.615385" stop-color="#7CA0A9"/>
<stop offset="0.692308" stop-color="#7CA0A9"/>
<stop offset="0.846154" stop-color="#7FA3AD"/>
<stop offset="0.923077" stop-color="#7FA3AD"/>
<stop offset="1" stop-color="#7C9FA7"/>
</linearGradient>
<radialGradient id="paint4_radial_725_1708" cx="0" cy="0" r="1" gradientUnits="userSpaceOnUse" gradientTransform="translate(108.75 18.7365) scale(19.9612 19.9612)">
<stop stop-color="#F0DDB1"/>
<stop offset="0.538424" stop-color="#F0DDB1"/>
<stop offset="0.562717" stop-color="#F0DAAF"/>
<stop offset="0.611304" stop-color="#F1D8AC"/>
<stop offset="0.829946" stop-color="#EFD9AC"/>
<stop offset="0.92712" stop-color="#ECD5AE"/>
<stop offset="0.951413" stop-color="#EAD7B1"/>
<stop offset="1" stop-color="#EBD4B1"/>
</radialGradient>
<linearGradient id="paint5_linear_725_1708" x1="31.0247" y1="71.1043" x2="37.0547" y2="75.7874" gradientUnits="userSpaceOnUse">
<stop stop-color="#E9F8F7"/>
<stop offset="0.15" stop-color="#F2EFE9"/>
<stop offset="0.2" stop-color="#F3ECE3"/>
<stop offset="0.3" stop-color="#F4E9DA"/>
<stop offset="0.4" stop-color="#F5E8D3"/>
<stop offset="0.5" stop-color="#F6EAD0"/>
<stop offset="1" stop-color="#F5EDDF"/>
</linearGradient>
<radialGradient id="paint6_radial_725_1708" cx="0" cy="0" r="1" gradientUnits="userSpaceOnUse" gradientTransform="translate(81.1078 11.6152) scale(1.33906 1.33906)">
<stop stop-color="#F6F0DF"/>
<stop offset="0.111593" stop-color="#F6F0DF"/>
<stop offset="1" stop-color="#F2EFE4"/>
</radialGradient>
<radialGradient id="paint7_radial_725_1708" cx="0" cy="0" r="1" gradientTransform="matrix(-49.2471 48.1143 -71.949 -73.6438 155.1 -16.0597)" gradientUnits="userSpaceOnUse">
<stop stop-color="#F2DEAE"/>
<stop offset="0.0294611" stop-color="#F2DEAE"/>
<stop offset="0.113856" stop-color="#F4DCAF"/>
<stop offset="0.156053" stop-color="#F1DBB6"/>
<stop offset="0.282645" stop-color="#F2D9B3"/>
<stop offset="0.578027" stop-color="#F3D8AC"/>
<stop offset="0.957803" stop-color="#F2D6AF"/>
<stop offset="1" stop-color="#EFD7B3"/>
</radialGradient>
</defs>
</svg>
